<?xml version="1.0" encoding="utf-8"?>
<!-- Generator: Adobe Illustrator 23.0.2, SVG Export Plug-In . SVG Version: 6.00 Build 0)  -->
<svg version="1.1" id="Layer_1" xmlns="http://www.w3.org/2000/svg" xmlns:xlink="http://www.w3.org/1999/xlink" x="0px" y="0px"
	 viewBox="0 0 300 500" style="enable-background:new 0 0 300 500;" xml:space="preserve">
<style type="text/css">
	.st0{fill:none;stroke:#999999;stroke-width:4;stroke-miterlimit:10;}
	.st1{fill:#999999;}
	.st2{fill:#51BA65;}
	.st3{fill:#CC3333;}
	.st4{enable-background:new    ;}
	.st5{fill:#FFFFFF;}
</style>
<g>
	<g>
		<line class="st0" x1="88.4" y1="216.2" x2="177.4" y2="193"/>
		<g>
			<polygon class="st1" points="177.2,199.3 185.7,190.9 174.2,187.7 			"/>
		</g>
	</g>
</g>
<g>
	<g>
		<line class="st0" x1="95.6" y1="158" x2="177.4" y2="179.3"/>
		<g>
			<polygon class="st1" points="174.2,184.7 185.7,181.5 177.2,173.1 			"/>
		</g>
	</g>
</g>
<ellipse class="st2" cx="88.4" cy="158" rx="15.6" ry="16.2"/>
<ellipse class="st2" cx="88.4" cy="216.2" rx="15.6" ry="16.2"/>
<circle class="st3" cx="201.2" cy="185.5" r="15.5"/>
<g>
	<g>
		<line class="st0" x1="171.1" y1="241" x2="188.2" y2="207.7"/>
		<g>
			<polygon class="st1" points="192.7,211.9 192.1,200 182,206.5 			"/>
		</g>
	</g>
</g>
<g class="st4">
	<path class="st5" d="M83.8,151.8l1.7,2.5c0.4,0.6,0.8,1.2,1.2,1.9h0.1c0.4-0.7,0.8-1.3,1.2-1.9l1.6-2.5h2.3l-4,5.6l4.1,6h-2.4
		l-1.7-2.6c-0.5-0.7-0.8-1.3-1.2-2h0c-0.4,0.7-0.8,1.3-1.2,2l-1.7,2.6h-2.3l4.1-5.9l-3.9-5.7H83.8z"/>
</g>
<g class="st4">
	<path class="st5" d="M93.6,167.7v-7.9h0l-1.7,0.8l-0.3-1.2l2.3-1.1h1.5v9.4H93.6z"/>
</g>
<g class="st4">
	<path class="st5" d="M82.8,208.7l1.7,2.5c0.4,0.6,0.8,1.2,1.2,1.9h0.1c0.4-0.7,0.8-1.3,1.2-1.9l1.6-2.5h2.3l-4,5.6l4.1,6h-2.4
		l-1.7-2.6c-0.5-0.7-0.8-1.3-1.2-2h0c-0.4,0.7-0.8,1.3-1.2,2l-1.7,2.6h-2.3l4.1-5.9l-3.9-5.7H82.8z"/>
</g>
<g class="st4">
	<path class="st5" d="M90.4,223.7l1.5-1.4c2-1.8,3-2.9,3-4.2c0-0.9-0.6-1.7-1.8-1.7c-0.8,0-1.6,0.4-2,0.7l-0.5-1.1
		c0.6-0.6,1.7-1,2.9-1c2.3,0,3.2,1.4,3.2,2.7c0,1.8-1.4,3.1-3.2,4.7l-0.7,0.7v0h4.1v1.3h-6.5V223.7z"/>
</g>
<g class="st4">
	<path class="st5" d="M199.1,179.4l2.5,6.9c0.3,0.8,0.6,1.7,0.7,2.4h0c0.2-0.7,0.5-1.6,0.7-2.4l2.3-6.8h2.2l-3.2,8.3
		c-1.5,4-2.5,6-4,7.3c-1,0.9-2.1,1.3-2.6,1.4l-0.5-1.8c0.5-0.2,1.2-0.5,1.8-1c0.6-0.5,1.3-1.3,1.8-2.4c0.1-0.2,0.2-0.4,0.2-0.5
		s0-0.3-0.1-0.6l-4.3-10.7H199.1z"/>
</g>
</svg>
